<mxfile host="65bd71144e">
    <diagram id="acx8mWXxXn38sFUSLBTn" name="Page-1">
        <mxGraphModel dx="882" dy="439" grid="1" gridSize="10" guides="1" tooltips="1" connect="1" arrows="1" fold="1" page="1" pageScale="1" pageWidth="827" pageHeight="1169" math="0" shadow="0">
            <root>
                <mxCell id="0"/>
                <mxCell id="1" parent="0"/>
                <mxCell id="3" value="LOGO" style="rounded=1;whiteSpace=wrap;html=1;" vertex="1" parent="1">
                    <mxGeometry x="10" y="20" width="100" height="60" as="geometry"/>
                </mxCell>
                <mxCell id="4" value="" style="shape=table;startSize=0;container=1;collapsible=0;childLayout=tableLayout;" vertex="1" parent="1">
                    <mxGeometry x="130" y="30" width="300" height="40" as="geometry"/>
                </mxCell>
                <mxCell id="5" value="" style="shape=partialRectangle;collapsible=0;dropTarget=0;pointerEvents=0;fillColor=none;top=0;left=0;bottom=0;right=0;points=[[0,0.5],[1,0.5]];portConstraint=eastwest;" vertex="1" parent="4">
                    <mxGeometry width="300" height="40" as="geometry"/>
                </mxCell>
                <mxCell id="6" value="Nhân Viên" style="shape=partialRectangle;html=1;whiteSpace=wrap;connectable=0;overflow=hidden;fillColor=none;top=0;left=0;bottom=0;right=0;pointerEvents=1;" vertex="1" parent="5">
                    <mxGeometry width="100" height="40" as="geometry">
                        <mxRectangle width="100" height="40" as="alternateBounds"/>
                    </mxGeometry>
                </mxCell>
                <mxCell id="7" value="Phòng Ban" style="shape=partialRectangle;html=1;whiteSpace=wrap;connectable=0;overflow=hidden;fillColor=none;top=0;left=0;bottom=0;right=0;pointerEvents=1;" vertex="1" parent="5">
                    <mxGeometry x="100" width="100" height="40" as="geometry">
                        <mxRectangle width="100" height="40" as="alternateBounds"/>
                    </mxGeometry>
                </mxCell>
                <mxCell id="8" value="Bảng Lương" style="shape=partialRectangle;html=1;whiteSpace=wrap;connectable=0;overflow=hidden;fillColor=none;top=0;left=0;bottom=0;right=0;pointerEvents=1;" vertex="1" parent="5">
                    <mxGeometry x="200" width="100" height="40" as="geometry">
                        <mxRectangle width="100" height="40" as="alternateBounds"/>
                    </mxGeometry>
                </mxCell>
                <mxCell id="9" value="&lt;font style=&quot;font-size: 18px&quot;&gt;Nhân Viên&lt;/font&gt;" style="text;html=1;strokeColor=none;fillColor=none;align=center;verticalAlign=middle;whiteSpace=wrap;rounded=0;" vertex="1" parent="1">
                    <mxGeometry x="30" y="90" width="110" height="60" as="geometry"/>
                </mxCell>
                <mxCell id="13" value="" style="rounded=1;whiteSpace=wrap;html=1;fontSize=18;fillColor=default;" vertex="1" parent="1">
                    <mxGeometry x="20" y="150" width="120" height="140" as="geometry"/>
                </mxCell>
                <mxCell id="14" value="" style="rounded=1;whiteSpace=wrap;html=1;fontSize=18;fillColor=default;" vertex="1" parent="1">
                    <mxGeometry x="180" y="150" width="120" height="140" as="geometry"/>
                </mxCell>
                <mxCell id="15" value="" style="rounded=1;whiteSpace=wrap;html=1;fontSize=18;fillColor=default;" vertex="1" parent="1">
                    <mxGeometry x="340" y="150" width="120" height="140" as="geometry"/>
                </mxCell>
                <mxCell id="16" value="" style="rounded=1;whiteSpace=wrap;html=1;fontSize=18;fillColor=default;" vertex="1" parent="1">
                    <mxGeometry x="510" y="150" width="120" height="140" as="geometry"/>
                </mxCell>
                <mxCell id="19" value="" style="rounded=1;whiteSpace=wrap;html=1;fontSize=18;fillColor=default;" vertex="1" parent="1">
                    <mxGeometry x="670" y="150" width="120" height="140" as="geometry"/>
                </mxCell>
                <mxCell id="20" value="" style="rounded=1;whiteSpace=wrap;html=1;fontSize=18;fillColor=default;" vertex="1" parent="1">
                    <mxGeometry x="20" y="310" width="120" height="140" as="geometry"/>
                </mxCell>
                <mxCell id="21" value="" style="rounded=1;whiteSpace=wrap;html=1;fontSize=18;fillColor=default;" vertex="1" parent="1">
                    <mxGeometry x="180" y="310" width="120" height="140" as="geometry"/>
                </mxCell>
                <mxCell id="22" value="" style="rounded=1;whiteSpace=wrap;html=1;fontSize=18;fillColor=default;" vertex="1" parent="1">
                    <mxGeometry x="340" y="310" width="120" height="140" as="geometry"/>
                </mxCell>
                <mxCell id="23" value="" style="rounded=1;whiteSpace=wrap;html=1;fontSize=18;fillColor=default;" vertex="1" parent="1">
                    <mxGeometry x="510" y="310" width="120" height="140" as="geometry"/>
                </mxCell>
                <mxCell id="24" value="" style="rounded=1;whiteSpace=wrap;html=1;fontSize=18;fillColor=default;" vertex="1" parent="1">
                    <mxGeometry x="670" y="310" width="120" height="140" as="geometry"/>
                </mxCell>
                <mxCell id="25" value="Ảnh" style="rounded=1;whiteSpace=wrap;html=1;fontSize=18;fillColor=default;" vertex="1" parent="1">
                    <mxGeometry x="20" y="150" width="120" height="110" as="geometry"/>
                </mxCell>
                <mxCell id="26" value="Ảnh" style="rounded=1;whiteSpace=wrap;html=1;fontSize=18;fillColor=default;" vertex="1" parent="1">
                    <mxGeometry x="180" y="150" width="120" height="110" as="geometry"/>
                </mxCell>
                <mxCell id="27" value="Ảnh" style="rounded=1;whiteSpace=wrap;html=1;fontSize=18;fillColor=default;" vertex="1" parent="1">
                    <mxGeometry x="340" y="150" width="120" height="110" as="geometry"/>
                </mxCell>
                <mxCell id="28" value="Ảnh" style="rounded=1;whiteSpace=wrap;html=1;fontSize=18;fillColor=default;" vertex="1" parent="1">
                    <mxGeometry x="510" y="150" width="120" height="110" as="geometry"/>
                </mxCell>
                <mxCell id="29" value="Ảnh" style="rounded=1;whiteSpace=wrap;html=1;fontSize=18;fillColor=default;" vertex="1" parent="1">
                    <mxGeometry x="670" y="150" width="120" height="110" as="geometry"/>
                </mxCell>
                <mxCell id="30" value="Ảnh" style="rounded=1;whiteSpace=wrap;html=1;fontSize=18;fillColor=default;" vertex="1" parent="1">
                    <mxGeometry x="20" y="310" width="120" height="110" as="geometry"/>
                </mxCell>
                <mxCell id="31" value="Ảnh" style="rounded=1;whiteSpace=wrap;html=1;fontSize=18;fillColor=default;" vertex="1" parent="1">
                    <mxGeometry x="180" y="310" width="120" height="110" as="geometry"/>
                </mxCell>
                <mxCell id="32" value="Ảnh" style="rounded=1;whiteSpace=wrap;html=1;fontSize=18;fillColor=default;" vertex="1" parent="1">
                    <mxGeometry x="340" y="310" width="120" height="110" as="geometry"/>
                </mxCell>
                <mxCell id="33" value="Ảnh" style="rounded=1;whiteSpace=wrap;html=1;fontSize=18;fillColor=default;" vertex="1" parent="1">
                    <mxGeometry x="510" y="310" width="120" height="110" as="geometry"/>
                </mxCell>
                <mxCell id="34" value="Ảnh" style="rounded=1;whiteSpace=wrap;html=1;fontSize=18;fillColor=default;" vertex="1" parent="1">
                    <mxGeometry x="670" y="310" width="120" height="110" as="geometry"/>
                </mxCell>
                <mxCell id="35" value="Tên" style="text;html=1;strokeColor=none;fillColor=none;align=center;verticalAlign=middle;whiteSpace=wrap;rounded=0;fontSize=18;" vertex="1" parent="1">
                    <mxGeometry x="50" y="260" width="60" height="30" as="geometry"/>
                </mxCell>
                <mxCell id="36" value="Tên" style="text;html=1;strokeColor=none;fillColor=none;align=center;verticalAlign=middle;whiteSpace=wrap;rounded=0;fontSize=18;" vertex="1" parent="1">
                    <mxGeometry x="210" y="260" width="60" height="30" as="geometry"/>
                </mxCell>
                <mxCell id="37" value="Tên" style="text;html=1;strokeColor=none;fillColor=none;align=center;verticalAlign=middle;whiteSpace=wrap;rounded=0;fontSize=18;" vertex="1" parent="1">
                    <mxGeometry x="370" y="260" width="60" height="30" as="geometry"/>
                </mxCell>
                <mxCell id="38" value="Tên" style="text;html=1;strokeColor=none;fillColor=none;align=center;verticalAlign=middle;whiteSpace=wrap;rounded=0;fontSize=18;" vertex="1" parent="1">
                    <mxGeometry x="540" y="260" width="60" height="30" as="geometry"/>
                </mxCell>
                <mxCell id="39" value="Tên" style="text;html=1;strokeColor=none;fillColor=none;align=center;verticalAlign=middle;whiteSpace=wrap;rounded=0;fontSize=18;" vertex="1" parent="1">
                    <mxGeometry x="700" y="260" width="60" height="30" as="geometry"/>
                </mxCell>
                <mxCell id="40" value="Tên" style="text;html=1;strokeColor=none;fillColor=none;align=center;verticalAlign=middle;whiteSpace=wrap;rounded=0;fontSize=18;" vertex="1" parent="1">
                    <mxGeometry x="50" y="420" width="60" height="30" as="geometry"/>
                </mxCell>
                <mxCell id="41" value="Tên" style="text;html=1;strokeColor=none;fillColor=none;align=center;verticalAlign=middle;whiteSpace=wrap;rounded=0;fontSize=18;" vertex="1" parent="1">
                    <mxGeometry x="210" y="420" width="60" height="30" as="geometry"/>
                </mxCell>
                <mxCell id="42" value="Tên" style="text;html=1;strokeColor=none;fillColor=none;align=center;verticalAlign=middle;whiteSpace=wrap;rounded=0;fontSize=18;" vertex="1" parent="1">
                    <mxGeometry x="370" y="420" width="60" height="30" as="geometry"/>
                </mxCell>
                <mxCell id="43" value="Tên" style="text;html=1;strokeColor=none;fillColor=none;align=center;verticalAlign=middle;whiteSpace=wrap;rounded=0;fontSize=18;" vertex="1" parent="1">
                    <mxGeometry x="540" y="420" width="60" height="30" as="geometry"/>
                </mxCell>
                <mxCell id="44" value="Tên" style="text;html=1;strokeColor=none;fillColor=none;align=center;verticalAlign=middle;whiteSpace=wrap;rounded=0;fontSize=18;" vertex="1" parent="1">
                    <mxGeometry x="700" y="420" width="60" height="30" as="geometry"/>
                </mxCell>
            </root>
        </mxGraphModel>
    </diagram>
</mxfile>